<svg width="195" height="37" viewBox="0 0 195 37" fill="none" xmlns="http://www.w3.org/2000/svg">
<path d="M9.68054 0.0731244C8.52686 0.237935 7.0136 0.829754 5.96481 1.52645C5.26811 1.99841 4.34667 2.8749 3.79231 3.60156C2.96077 4.71778 2.27156 6.37337 2.08428 7.7368C1.97191 8.53838 1.97191 28.4505 2.08428 29.252C2.33149 31.0275 3.193 32.8104 4.45155 34.1514C5.82997 35.6197 7.8002 36.646 9.74796 36.9157C10.5495 37.0281 30.4616 37.0281 31.2632 36.9157C32.6266 36.7284 34.2822 36.0392 35.3984 35.2077C36.1251 34.6533 37.0016 33.7319 37.4735 33.0352C38.1927 31.9414 38.7546 30.4881 38.9269 29.252C39.0392 28.4505 39.0392 8.53838 38.9269 7.7368C38.7396 6.37337 38.0504 4.71778 37.2188 3.60156C36.6645 2.8749 35.743 1.99841 35.0463 1.52645C33.9526 0.807279 32.4993 0.245426 31.2632 0.0731244C30.5515 -0.0242635 10.3623 -0.0242635 9.68054 0.0731244ZM29.5177 9.06278C30.5665 9.41487 31.5254 10.1266 32.0423 10.9281C32.8064 12.1118 32.8589 14.1869 32.1622 15.378C31.2557 16.9287 29.72 17.7678 27.952 17.6854C27.7572 17.6704 27.6973 17.6179 27.5774 17.3557C27.3452 16.8388 26.611 15.9024 25.817 15.1083C25.4049 14.6963 25.0753 14.3517 25.0753 14.3367C25.0753 14.3142 25.8619 14.2993 26.8283 14.2993C28.5139 14.2993 28.5813 14.2918 28.8285 14.1269C29.1806 13.8947 29.3754 13.4827 29.3079 13.0931C29.248 12.7261 28.866 12.3215 28.5214 12.2466C28.1168 12.1717 21.0375 12.1942 20.5056 12.2766C19.8763 12.3815 19.0373 12.7785 18.5953 13.183C17.936 13.7898 17.5165 15.0034 17.6214 15.9698C17.7338 16.9961 18.0409 17.4681 19.4418 18.7267C20.8577 20.0002 21.0524 20.2399 21.0899 20.8093C21.1648 21.8431 20.3707 22.6896 19.3369 22.6896C18.7376 22.6896 18.363 22.4199 16.7824 20.8467C15.4414 19.5058 15.2541 19.296 14.9844 18.7566C14.4825 17.7678 14.3477 17.2509 14.3102 16.0822C14.2503 14.4641 14.4975 13.213 15.0893 12.2092C15.4639 11.5724 16.4977 10.4861 17.1419 10.0666C17.7937 9.62463 18.6552 9.23508 19.3294 9.05529C19.8314 8.92793 20.2134 8.91295 24.461 8.91295C28.9184 8.90546 29.0607 8.91295 29.5177 9.06278ZM22.2661 14.5165C22.8579 14.7937 25.0229 16.8838 25.7196 17.8651C26.4088 18.824 26.7459 20.0751 26.7459 21.6033C26.7459 22.772 26.5961 23.4312 26.0867 24.4576C25.2401 26.1806 23.7943 27.3492 21.854 27.8736C21.2247 28.0459 21.1873 28.0459 16.4977 28.0459C11.1114 28.0459 11.3586 28.0759 10.3323 27.3867C9.44081 26.7874 8.74411 25.821 8.48191 24.8097C8.33209 24.2403 8.33958 23.1241 8.48941 22.6072C8.80404 21.5359 9.77792 20.2924 10.6694 19.8204C11.1938 19.5432 12.1077 19.3185 12.7145 19.3185H13.209L13.6585 20.0376C14.093 20.7568 15.0593 21.8281 15.786 22.4124L16.1231 22.6821L14.2503 22.6896C12.5048 22.6896 12.3624 22.6971 12.1302 22.8394C11.5084 23.2215 11.486 24.1954 12.0928 24.6074C12.2875 24.7422 12.5273 24.7497 16.3479 24.7722C20.5805 24.7947 20.9026 24.7797 21.5094 24.4725C21.9964 24.2253 22.8429 23.3114 23.1351 22.7271C23.3748 22.2401 23.3898 22.1577 23.3823 21.491C23.3748 20.2324 23.0302 19.6331 21.5244 18.2922C20.116 17.0336 19.9587 16.8238 19.9212 16.1796C19.8913 15.6252 19.9887 15.3031 20.3108 14.9285C20.7453 14.4041 21.6218 14.2168 22.2661 14.5165Z" fill="#3498DB"/>
<path d="M41.95 21.9H45.3C45.4 22.65 45.7083 23.3083 46.225 23.875C46.7583 24.4417 47.4583 24.8833 48.325 25.2C49.1917 25.5 50.1917 25.65 51.325 25.65C53.0083 25.65 54.3417 25.3917 55.325 24.875C56.3083 24.3417 56.8 23.625 56.8 22.725C56.8 21.9917 56.5167 21.4417 55.95 21.075C55.3833 20.7083 54.3583 20.4333 52.875 20.25L48.825 19.725C46.5583 19.425 44.9083 18.8667 43.875 18.05C42.8583 17.2167 42.35 16.0417 42.35 14.525C42.35 13.375 42.6917 12.3833 43.375 11.55C44.075 10.7 45.0583 10.05 46.325 9.6C47.5917 9.13333 49.075 8.9 50.775 8.9C52.4583 8.9 53.95 9.15 55.25 9.65C56.55 10.15 57.5833 10.85 58.35 11.75C59.1333 12.6333 59.5583 13.675 59.625 14.875H56.275C56.1917 14.2083 55.9083 13.6333 55.425 13.15C54.9583 12.6667 54.325 12.2917 53.525 12.025C52.725 11.7417 51.7833 11.6 50.7 11.6C49.1667 11.6 47.9417 11.85 47.025 12.35C46.1083 12.85 45.65 13.5333 45.65 14.4C45.65 15.0667 45.9167 15.5833 46.45 15.95C47 16.3 47.95 16.5667 49.3 16.75L53.4 17.325C55.0833 17.5583 56.4083 17.875 57.375 18.275C58.3583 18.6583 59.0583 19.1833 59.475 19.85C59.8917 20.5 60.1 21.3417 60.1 22.375C60.1 23.575 59.7333 24.625 59 25.525C58.2667 26.425 57.2333 27.125 55.9 27.625C54.5833 28.1083 53.0417 28.35 51.275 28.35C49.475 28.35 47.8833 28.0833 46.5 27.55C45.1333 27 44.05 26.2417 43.25 25.275C42.45 24.3083 42.0167 23.1833 41.95 21.9ZM61.1934 16.35V14.875L64.2184 14.1L65.5684 10.15H67.4684V13.85H74.0434V16.35H67.4684V22.475C67.4684 23.6583 67.7184 24.4917 68.2184 24.975C68.735 25.4417 69.5684 25.675 70.7184 25.675C71.4517 25.675 72.1017 25.6 72.6684 25.45C73.235 25.2833 73.7767 25.05 74.2934 24.75V27.425C73.86 27.6417 73.2434 27.85 72.4434 28.05C71.66 28.25 70.8517 28.35 70.0184 28.35C68.635 28.35 67.5184 28.125 66.6684 27.675C65.8184 27.2083 65.1934 26.575 64.7934 25.775C64.41 24.9583 64.2184 24.025 64.2184 22.975V16.35H61.1934ZM83.9973 28.35C82.2806 28.35 80.7723 28.0417 79.4723 27.425C78.1889 26.7917 77.1806 25.9167 76.4473 24.8C75.7306 23.6833 75.3723 22.3917 75.3723 20.925C75.3723 19.4417 75.7306 18.15 76.4473 17.05C77.1806 15.9333 78.1889 15.0667 79.4723 14.45C80.7723 13.8167 82.2806 13.5 83.9973 13.5C85.7139 13.5 87.2139 13.8167 88.4973 14.45C89.7973 15.0667 90.8056 15.9333 91.5223 17.05C92.2556 18.15 92.6223 19.4417 92.6223 20.925C92.6223 22.3917 92.2556 23.6833 91.5223 24.8C90.8056 25.9167 89.7973 26.7917 88.4973 27.425C87.2139 28.0417 85.7139 28.35 83.9973 28.35ZM83.9973 25.8C85.0973 25.8 86.0389 25.6 86.8223 25.2C87.6223 24.8 88.2389 24.2417 88.6723 23.525C89.1056 22.7917 89.3223 21.925 89.3223 20.925C89.3223 19.925 89.1056 19.0667 88.6723 18.35C88.2389 17.6167 87.6223 17.05 86.8223 16.65C86.0389 16.25 85.0973 16.05 83.9973 16.05C82.9139 16.05 81.9723 16.25 81.1723 16.65C80.3723 17.05 79.7556 17.6167 79.3223 18.35C78.8889 19.0667 78.6723 19.925 78.6723 20.925C78.6723 21.925 78.8889 22.7917 79.3223 23.525C79.7556 24.2417 80.3723 24.8 81.1723 25.2C81.9723 25.6 82.9139 25.8 83.9973 25.8ZM98.5141 25.175L97.5641 24.825L106.564 13.85H110.314L98.2891 28H95.2641V8.75H98.5141V25.175ZM102.539 21L104.814 18.95L110.739 28H106.914L102.539 21ZM112.378 8.75H115.628V28H112.378V8.75ZM132.268 28L131.718 22.75L132.368 20.925L131.718 19.125L132.268 13.85H135.618L134.868 20.925L135.618 28H132.268ZM133.268 20.925C132.951 22.4083 132.426 23.7083 131.693 24.825C130.959 25.9417 130.051 26.8083 128.968 27.425C127.901 28.0417 126.709 28.35 125.393 28.35C124.009 28.35 122.784 28.0417 121.718 27.425C120.651 26.7917 119.818 25.9167 119.218 24.8C118.618 23.6833 118.318 22.3917 118.318 20.925C118.318 19.4417 118.618 18.15 119.218 17.05C119.818 15.9333 120.651 15.0667 121.718 14.45C122.784 13.8167 124.009 13.5 125.393 13.5C126.709 13.5 127.901 13.8083 128.968 14.425C130.051 15.0417 130.959 15.9083 131.693 17.025C132.443 18.125 132.968 19.425 133.268 20.925ZM121.618 20.925C121.618 21.875 121.809 22.7167 122.193 23.45C122.593 24.1667 123.134 24.7333 123.818 25.15C124.501 25.55 125.284 25.75 126.168 25.75C127.068 25.75 127.901 25.55 128.668 25.15C129.434 24.7333 130.109 24.1667 130.693 23.45C131.293 22.7167 131.768 21.875 132.118 20.925C131.768 19.975 131.293 19.1417 130.693 18.425C130.109 17.6917 129.434 17.125 128.668 16.725C127.901 16.3083 127.068 16.1 126.168 16.1C125.284 16.1 124.501 16.3083 123.818 16.725C123.134 17.125 122.593 17.6917 122.193 18.425C121.809 19.1417 121.618 19.975 121.618 20.925ZM140.246 28.2C139.862 28.2 139.512 28.1083 139.196 27.925C138.896 27.7417 138.654 27.5 138.471 27.2C138.287 26.8833 138.196 26.5333 138.196 26.15C138.196 25.7667 138.287 25.425 138.471 25.125C138.654 24.8083 138.896 24.5583 139.196 24.375C139.512 24.1917 139.862 24.1 140.246 24.1C140.629 24.1 140.971 24.1917 141.271 24.375C141.587 24.5583 141.837 24.8083 142.021 25.125C142.204 25.425 142.296 25.7667 142.296 26.15C142.296 26.5333 142.204 26.8833 142.021 27.2C141.837 27.5 141.587 27.7417 141.271 27.925C140.971 28.1083 140.629 28.2 140.246 28.2ZM144.516 13.85H147.766L148.616 18.95V28H145.366V18.475L144.516 13.85ZM154.241 13.5C155.574 13.5 156.707 13.7667 157.641 14.3C158.574 14.8333 159.282 15.6 159.766 16.6C160.266 17.5833 160.516 18.775 160.516 20.175V28H157.266V20.7C157.266 19.2167 156.916 18.1 156.216 17.35C155.532 16.5833 154.524 16.2 153.191 16.2C152.274 16.2 151.466 16.4083 150.766 16.825C150.082 17.225 149.549 17.7917 149.166 18.525C148.799 19.2583 148.616 20.1167 148.616 21.1L147.466 20.475C147.616 19.0083 147.999 17.7583 148.616 16.725C149.232 15.6917 150.024 14.9 150.991 14.35C151.957 13.7833 153.041 13.5 154.241 13.5ZM171.495 28.35C169.845 28.35 168.378 28.0417 167.095 27.425C165.812 26.7917 164.803 25.9167 164.07 24.8C163.337 23.6833 162.97 22.3833 162.97 20.9C162.97 19.4333 163.312 18.15 163.995 17.05C164.695 15.9333 165.653 15.0667 166.87 14.45C168.103 13.8167 169.512 13.5 171.095 13.5C172.678 13.5 174.045 13.8583 175.195 14.575C176.362 15.275 177.262 16.2667 177.895 17.55C178.528 18.8333 178.845 20.3417 178.845 22.075H165.52V19.6H177.22L175.595 20.525C175.545 19.5917 175.32 18.7917 174.92 18.125C174.537 17.4583 174.012 16.95 173.345 16.6C172.695 16.2333 171.92 16.05 171.02 16.05C170.07 16.05 169.237 16.2417 168.52 16.625C167.82 17.0083 167.27 17.55 166.87 18.25C166.47 18.9333 166.27 19.75 166.27 20.7C166.27 21.75 166.503 22.6583 166.97 23.425C167.453 24.1917 168.128 24.7833 168.995 25.2C169.878 25.6 170.92 25.8 172.12 25.8C173.203 25.8 174.312 25.6333 175.445 25.3C176.578 24.95 177.578 24.4667 178.445 23.85V26.2C177.578 26.8667 176.52 27.3917 175.27 27.775C174.037 28.1583 172.778 28.35 171.495 28.35ZM179.626 16.35V14.875L182.651 14.1L184.001 10.15H185.901V13.85H192.476V16.35H185.901V22.475C185.901 23.6583 186.151 24.4917 186.651 24.975C187.168 25.4417 188.001 25.675 189.151 25.675C189.884 25.675 190.534 25.6 191.101 25.45C191.668 25.2833 192.209 25.05 192.726 24.75V27.425C192.293 27.6417 191.676 27.85 190.876 28.05C190.093 28.25 189.284 28.35 188.451 28.35C187.068 28.35 185.951 28.125 185.101 27.675C184.251 27.2083 183.626 26.575 183.226 25.775C182.843 24.9583 182.651 24.025 182.651 22.975V16.35H179.626Z" fill="#111111"/>
</svg>
